<svg xmlns="http://www.w3.org/2000/svg" xmlns:xlink="http://www.w3.org/1999/xlink" width="1920" height="1080" viewBox="0 0 1920 1080">
  <defs>
    <linearGradient id="linear-gradient" x1="0.5" x2="0.5" y2="1" gradientUnits="objectBoundingBox">
      <stop offset="0" stop-color="#ffcc24"/>
      <stop offset="0.238" stop-color="#ffd446"/>
      <stop offset="0.648" stop-color="#ffcc24"/>
      <stop offset="1" stop-color="#a88f3b"/>
    </linearGradient>
    <linearGradient id="linear-gradient-2" x1="0.5" x2="0.5" y2="1" gradientUnits="objectBoundingBox">
      <stop offset="0" stop-color="#fee287"/>
      <stop offset="0.858" stop-color="#f8ce48"/>
      <stop offset="1" stop-color="#7f7144"/>
    </linearGradient>
    <linearGradient id="linear-gradient-3" x1="0.5" x2="0.5" y2="1" gradientUnits="objectBoundingBox">
      <stop offset="0" stop-color="#ffeaa7"/>
      <stop offset="0.653" stop-color="#ffd64f"/>
      <stop offset="1" stop-color="#ffd446"/>
      <stop offset="1" stop-color="#807554"/>
    </linearGradient>
    <clipPath id="clip-Web_1920_1">
      <rect width="1920" height="1080"/>
    </clipPath>
  </defs>
  <g id="Web_1920_1" data-name="Web 1920 – 1" clip-path="url(#clip-Web_1920_1)">
    <rect width="1920" height="1080" fill="#fff"/>
    <path id="Tracé_1" data-name="Tracé 1" d="M0,580.06v501.752H1777.885s-51.48-483.626-203.021-623.565S1225.6,288.4,1116.616,295.831C861.39,313.232,895.468,731.6,655.468,771.48S419.094,585.861,240.725,539.456,0,580.06,0,580.06Z" stroke="rgba(112,112,112,0)" stroke-width="1" fill="url(#linear-gradient)"/>
    <path id="Tracé_2" data-name="Tracé 2" d="M0,681.752v400.06H1931.6s43.5-258.943-14.5-375.227-143.565-139.214-298.731-139.214-118.187,145.015-321.934,139.214S1060.281,635.349,951.3,642.78c-255.227,17.4-174.743,244.35-414.743,284.23S392.991,728.157,214.622,681.752,0,681.752,0,681.752Z" transform="translate(0 -1.813)" stroke="rgba(112,112,112,0)" stroke-width="1" fill="url(#linear-gradient-2)"/>
    <path id="Tracé_3" data-name="Tracé 3" d="M188.52,107.311c-56.556,35.529-23.927,222.6,43.5,249.426s205.921-63.807,226.224-142.115S245.076,71.782,188.52,107.311Z" fill="#ffeaa7"/>
    <path id="Tracé_4" data-name="Tracé 4" d="M209.826,117.452c-98.184,71.522-41.54,448.105,75.526,502.112S642.844,491.117,678.09,333.477,308.01,45.93,209.826,117.452Z" transform="matrix(0.891, 0.454, -0.454, 0.891, 1385.325, 70.284)" fill="url(#linear-gradient-3)"/>
  </g>
</svg>
